<!DOCTYPE svg PUBLIC "-//W3C//DTD SVG 1.1//EN" "http://www.w3.org/Graphics/SVG/1.1/DTD/svg11.dtd"> <svg width="521px" height="521px" version="1.1" baseProfile="full" xmlns="http://www.w3.org/2000/svg" xmlns:xlink="http://www.w3.org/1999/xlink" xmlns:ev="http://www.w3.org/2001/xml-events"><polygon fill="rgb(246,133,27)" stroke="rgb(246,133,27)" points="404.7580132484436,102.07301124930382 363.2419867515564,102.07301124930382 346.6389741897583,60.848193883895874"></polygon><polygon fill="rgb(246,133,27)" stroke="rgb(246,133,27)" points="346.6389741897583,60.848193883895874 421.3610258102417,60.848193883895874 404.7580132484436,102.07301124930382"></polygon><polygon fill="rgb(228,118,27)" stroke="rgb(228,118,27)" points="363.2419867515564,102.07301124930382 257.8421745300293,22.751826882362366 346.6389741897583,60.848193883895874"></polygon><polygon fill="rgb(226,118,27)" stroke="rgb(226,118,27)" points="510.1578254699707,22.751826882362366 404.7580132484436,102.07301124930382 421.3610258102417,60.848193883895874"></polygon><polygon fill="rgb(118,61,22)" stroke="rgb(118,61,22)" points="301.05199241638184,134.40168615430593 253.68098831176758,122.64983002841473 251.01113891601562,111.50146368145943"></polygon><polygon fill="rgb(118,61,22)" stroke="rgb(118,61,22)" points="466.94800758361816,134.40168615430593 516.9888610839844,111.50146368145943 514.3190116882324,122.64983002841473"></polygon><polygon fill="rgb(118,61,22)" stroke="rgb(118,61,22)" points="262.27204513549805,155.25079057738185 301.05199241638184,134.40168615430593 321.4845943450928,138.58903083205223"></polygon><polygon fill="rgb(118,61,22)" stroke="rgb(118,61,22)" points="505.72795486450195,155.25079057738185 446.5154056549072,138.58903083205223 466.94800758361816,134.40168615430593"></polygon><polygon fill="rgb(118,61,22)" stroke="rgb(118,61,22)" points="255.45215606689453,136.03654146194458 301.05199241638184,134.40168615430593 262.27204513549805,155.25079057738185"></polygon><polygon fill="rgb(118,61,22)" stroke="rgb(118,61,22)" points="255.45215606689453,136.03654146194458 253.68098831176758,122.64983002841473 301.05199241638184,134.40168615430593"></polygon><polygon fill="rgb(118,61,22)" stroke="rgb(118,61,22)" points="512.5478439331055,136.03654146194458 505.72795486450195,155.25079057738185 466.94800758361816,134.40168615430593"></polygon><polygon fill="rgb(118,61,22)" stroke="rgb(118,61,22)" points="512.5478439331055,136.03654146194458 466.94800758361816,134.40168615430593 514.3190116882324,122.64983002841473"></polygon><polygon fill="rgb(118,61,22)" stroke="rgb(118,61,22)" points="302.8597583770752,74.91058221459389 301.05199241638184,134.40168615430593 251.01113891601562,111.50146368145943"></polygon><polygon fill="rgb(118,61,22)" stroke="rgb(118,61,22)" points="321.4845943450928,138.58903083205223 301.05199241638184,134.40168615430593 302.8597583770752,74.91058221459389"></polygon><polygon fill="rgb(118,61,22)" stroke="rgb(118,61,22)" points="516.9888610839844,111.50146368145943 466.94800758361816,134.40168615430593 465.1402416229248,74.91058221459389"></polygon><polygon fill="rgb(118,61,22)" stroke="rgb(118,61,22)" points="465.1402416229248,74.91058221459389 466.94800758361816,134.40168615430593 446.5154056549072,138.58903083205223"></polygon><polygon fill="rgb(228,118,27)" stroke="rgb(228,118,27)" points="323.47726249694824,260.96402537822723 257.72188568115234,283.3925238251686 240.90626907348633,218.19253581762314"></polygon><polygon fill="rgb(228,118,27)" stroke="rgb(228,118,27)" points="527.0937309265137,218.19253581762314 510.27811431884766,283.3925238251686 444.52273750305176,260.96402537822723"></polygon><polygon fill="rgb(118,61,22)" stroke="rgb(118,61,22)" points="302.8597583770752,74.91058221459389 363.2419867515564,102.07301124930382 321.4845943450928,138.58903083205223"></polygon><polygon fill="rgb(118,61,22)" stroke="rgb(118,61,22)" points="446.5154056549072,138.58903083205223 404.7580132484436,102.07301124930382 465.1402416229248,74.91058221459389"></polygon><polygon fill="rgb(118,61,22)" stroke="rgb(118,61,22)" points="244.89212036132812,115.64476808905602 251.01113891601562,111.50146368145943 253.68098831176758,122.64983002841473"></polygon><polygon fill="rgb(118,61,22)" stroke="rgb(118,61,22)" points="523.1078796386719,115.64476808905602 514.3190116882324,122.64983002841473 516.9888610839844,111.50146368145943"></polygon><polygon fill="rgb(246,133,27)" stroke="rgb(246,133,27)" points="303.3831539154053,161.17504984512925 240.90626907348633,218.19253581762314 262.27204513549805,155.25079057738185"></polygon><polygon fill="rgb(246,133,27)" stroke="rgb(246,133,27)" points="464.6168460845947,161.17504984512925 505.72795486450195,155.25079057738185 527.0937309265137,218.19253581762314"></polygon><polygon fill="rgb(118,61,22)" stroke="rgb(118,61,22)" points="255.45215606689453,136.03654146194458 246.75008010864258,127.66469256579876 253.68098831176758,122.64983002841473"></polygon><polygon fill="rgb(118,61,22)" stroke="rgb(118,61,22)" points="512.5478439331055,136.03654146194458 514.3190116882324,122.64983002841473 521.2499198913574,127.66469256579876"></polygon><polygon fill="rgb(246,133,27)" stroke="rgb(246,133,27)" points="293.91112518310547,212.79603652656078 240.90626907348633,218.19253581762314 303.3831539154053,161.17504984512925"></polygon><polygon fill="rgb(246,133,27)" stroke="rgb(246,133,27)" points="464.6168460845947,161.17504984512925 527.0937309265137,218.19253581762314 474.08887481689453,212.79603652656078"></polygon><polygon fill="rgb(228,118,27)" stroke="rgb(228,118,27)" points="240.90626907348633,218.19253581762314 293.91112518310547,212.79603652656078 323.47726249694824,260.96402537822723"></polygon><polygon fill="rgb(228,118,27)" stroke="rgb(228,118,27)" points="444.52273750305176,260.96402537822723 474.08887481689453,212.79603652656078 527.0937309265137,218.19253581762314"></polygon><polygon fill="rgb(118,61,22)" stroke="rgb(118,61,22)" points="262.27204513549805,155.25079057738185 249.7829475402832,139.85242769867182 255.45215606689453,136.03654146194458"></polygon><polygon fill="rgb(118,61,22)" stroke="rgb(118,61,22)" points="505.72795486450195,155.25079057738185 512.5478439331055,136.03654146194458 518.2170524597168,139.85242769867182"></polygon><polygon fill="rgb(118,61,22)" stroke="rgb(118,61,22)" points="251.01113891601562,111.50146368145943 242.86982345581055,65.38296619057655 302.8597583770752,74.91058221459389"></polygon><polygon fill="rgb(118,61,22)" stroke="rgb(118,61,22)" points="465.1402416229248,74.91058221459389 525.1301765441895,65.38296619057655 516.9888610839844,111.50146368145943"></polygon><polygon fill="rgb(246,133,27)" stroke="rgb(246,133,27)" points="262.27204513549805,155.25079057738185 321.4845943450928,138.58903083205223 303.3831539154053,161.17504984512925"></polygon><polygon fill="rgb(246,133,27)" stroke="rgb(246,133,27)" points="505.72795486450195,155.25079057738185 464.6168460845947,161.17504984512925 446.5154056549072,138.58903083205223"></polygon><polygon fill="rgb(228,118,27)" stroke="rgb(228,118,27)" points="321.4845943450928,138.58903083205223 363.2419867515564,102.07301124930382 366.7741084098816,162.25938599556684"></polygon><polygon fill="rgb(228,118,27)" stroke="rgb(228,118,27)" points="366.7741084098816,162.25938599556684 303.3831539154053,161.17504984512925 321.4845943450928,138.58903083205223"></polygon><polygon fill="rgb(228,118,27)" stroke="rgb(228,118,27)" points="446.5154056549072,138.58903083205223 464.6168460845947,161.17504984512925 401.2258915901184,162.25938599556684"></polygon><polygon fill="rgb(228,118,27)" stroke="rgb(228,118,27)" points="401.2258915901184,162.25938599556684 404.7580132484436,102.07301124930382 446.5154056549072,138.58903083205223"></polygon><polygon fill="rgb(118,61,22)" stroke="rgb(118,61,22)" points="257.8421745300293,22.751826882362366 363.2419867515564,102.07301124930382 302.8597583770752,74.91058221459389"></polygon><polygon fill="rgb(118,61,22)" stroke="rgb(118,61,22)" points="510.1578254699707,22.751826882362366 525.1301765441895,65.38296619057655 465.1402416229248,74.91058221459389"></polygon><polygon fill="rgb(118,61,22)" stroke="rgb(118,61,22)" points="302.8597583770752,74.91058221459389 242.86982345581055,65.38296619057655 257.8421745300293,22.751826882362366"></polygon><polygon fill="rgb(118,61,22)" stroke="rgb(118,61,22)" points="465.1402416229248,74.91058221459389 404.7580132484436,102.07301124930382 510.1578254699707,22.751826882362366"></polygon><polygon fill="rgb(246,133,27)" stroke="rgb(246,133,27)" points="363.2419867515564,102.07301124930382 404.7580132484436,102.07301124930382 401.2258915901184,162.25938599556684"></polygon><polygon fill="rgb(246,133,27)" stroke="rgb(246,133,27)" points="401.2258915901184,162.25938599556684 366.7741084098816,162.25938599556684 363.2419867515564,102.07301124930382"></polygon><polygon fill="rgb(205,97,22)" stroke="rgb(205,97,22)" points="323.47726249694824,260.96402537822723 293.91112518310547,212.79603652656078 329.4100914001465,211.74899850040674"></polygon><polygon fill="rgb(205,97,22)" stroke="rgb(205,97,22)" points="444.52273750305176,260.96402537822723 438.5899085998535,211.74899850040674 474.08887481689453,212.79603652656078"></polygon><polygon fill="rgb(205,97,22)" stroke="rgb(205,97,22)" points="328.7383918762207,186.1177618149668 303.3831539154053,161.17504984512925 366.7741084098816,162.25938599556684"></polygon><polygon fill="rgb(205,97,22)" stroke="rgb(205,97,22)" points="401.2258915901184,162.25938599556684 464.6168460845947,161.17504984512925 439.2616081237793,186.1177618149668"></polygon><polygon fill="rgb(246,133,27)" stroke="rgb(246,133,27)" points="303.3831539154053,161.17504984512925 329.4100914001465,211.74899850040674 293.91112518310547,212.79603652656078"></polygon><polygon fill="rgb(246,133,27)" stroke="rgb(246,133,27)" points="474.08887481689453,212.79603652656078 438.5899085998535,211.74899850040674 464.6168460845947,161.17504984512925"></polygon><polygon fill="rgb(228,117,31)" stroke="rgb(228,117,31)" points="303.3831539154053,161.17504984512925 328.7383918762207,186.1177618149668 329.4100914001465,211.74899850040674"></polygon><polygon fill="rgb(228,117,31)" stroke="rgb(228,117,31)" points="464.6168460845947,161.17504984512925 438.5899085998535,211.74899850040674 439.2616081237793,186.1177618149668"></polygon><polygon fill="rgb(192,173,158)" stroke="rgb(192,173,158)" points="336.0444145202637,269.084803968668 323.47726249694824,260.96402537822723 359.7358989715576,267.92306661605835"></polygon><polygon fill="rgb(192,173,158)" stroke="rgb(192,173,158)" points="408.2641010284424,267.92306661605835 444.52273750305176,260.96402537822723 431.9555854797363,269.084803968668"></polygon><polygon fill="rgb(215,193,179)" stroke="rgb(215,193,179)" points="359.48792839050293,254.83348827064037 359.7358989715576,267.92306661605835 323.47726249694824,260.96402537822723"></polygon><polygon fill="rgb(215,193,179)" stroke="rgb(215,193,179)" points="408.51207160949707,254.83348827064037 444.52273750305176,260.96402537822723 408.2641010284424,267.92306661605835"></polygon><polygon fill="rgb(228,118,27)" stroke="rgb(228,118,27)" points="362.6300868988037,228.68909038603306 323.47726249694824,260.96402537822723 329.4100914001465,211.74899850040674"></polygon><polygon fill="rgb(228,118,27)" stroke="rgb(228,118,27)" points="405.3699131011963,228.68909038603306 438.5899085998535,211.74899850040674 444.52273750305176,260.96402537822723"></polygon><polygon fill="rgb(215,193,179)" stroke="rgb(215,193,179)" points="323.47726249694824,260.96402537822723 362.6300868988037,228.68909038603306 359.48792839050293,254.83348827064037"></polygon><polygon fill="rgb(215,193,179)" stroke="rgb(215,193,179)" points="444.52273750305176,260.96402537822723 408.51207160949707,254.83348827064037 405.3699131011963,228.68909038603306"></polygon><polygon fill="rgb(205,97,22)" stroke="rgb(205,97,22)" points="366.7741084098816,162.25938599556684 351.4505395889282,175.588110224111 328.7383918762207,186.1177618149668"></polygon><polygon fill="rgb(205,97,22)" stroke="rgb(205,97,22)" points="439.2616081237793,186.1177618149668 416.5494604110718,175.588110224111 401.2258915901184,162.25938599556684"></polygon><polygon fill="rgb(246,133,27)" stroke="rgb(246,133,27)" points="329.4100914001465,211.74899850040674 328.7383918762207,186.1177618149668 360.78846645355225,194.39740032702684"></polygon><polygon fill="rgb(246,133,27)" stroke="rgb(246,133,27)" points="438.5899085998535,211.74899850040674 407.21153354644775,194.39740032702684 439.2616081237793,186.1177618149668"></polygon><polygon fill="rgb(35,52,71)" stroke="rgb(35,52,71)" points="360.78846645355225,194.39740032702684 328.7383918762207,186.1177618149668 351.4505395889282,175.588110224111"></polygon><polygon fill="rgb(35,52,71)" stroke="rgb(35,52,71)" points="407.21153354644775,194.39740032702684 416.5494604110718,175.588110224111 439.2616081237793,186.1177618149668"></polygon><polygon fill="rgb(205,97,22)" stroke="rgb(205,97,22)" points="351.4505395889282,175.588110224111 366.7741084098816,162.25938599556684 360.78846645355225,194.39740032702684"></polygon><polygon fill="rgb(205,97,22)" stroke="rgb(205,97,22)" points="416.5494604110718,175.588110224111 407.21153354644775,194.39740032702684 401.2258915901184,162.25938599556684"></polygon><polygon fill="rgb(246,133,27)" stroke="rgb(246,133,27)" points="368.15866899490356,181.26094355341047 366.7741084098816,162.25938599556684 401.2258915901184,162.25938599556684"></polygon><polygon fill="rgb(246,133,27)" stroke="rgb(246,133,27)" points="401.2258915901184,162.25938599556684 399.84133100509644,181.26094355341047 368.15866899490356,181.26094355341047"></polygon><polygon fill="rgb(228,117,31)" stroke="rgb(228,117,31)" points="360.78846645355225,194.39740032702684 366.7741084098816,162.25938599556684 368.15866899490356,181.26094355341047"></polygon><polygon fill="rgb(226,118,27)" stroke="rgb(226,118,27)" points="407.21153354644775,194.39740032702684 399.84133100509644,181.26094355341047 401.2258915901184,162.25938599556684"></polygon><polygon fill="rgb(192,173,158)" stroke="rgb(192,173,158)" points="359.7358989715576,267.92306661605835 361.85961055755615,278.7103316783905 336.0444145202637,269.084803968668"></polygon><polygon fill="rgb(192,173,158)" stroke="rgb(192,173,158)" points="431.9555854797363,269.084803968668 406.14038944244385,278.7103316783905 408.2641010284424,267.92306661605835"></polygon><polygon fill="rgb(246,133,27)" stroke="rgb(246,133,27)" points="362.6300868988037,228.68909038603306 329.4100914001465,211.74899850040674 360.78846645355225,194.39740032702684"></polygon><polygon fill="rgb(246,133,27)" stroke="rgb(246,133,27)" points="407.21153354644775,194.39740032702684 438.5899085998535,211.74899850040674 405.3699131011963,228.68909038603306"></polygon><polygon fill="rgb(228,117,31)" stroke="rgb(228,117,31)" points="368.15866899490356,181.26094355341047 368.14420080184937,224.8475690037012 360.78846645355225,194.39740032702684"></polygon><polygon fill="rgb(228,117,31)" stroke="rgb(228,117,31)" points="399.84133100509644,181.26094355341047 407.21153354644775,194.39740032702684 399.85579919815063,224.8475690037012"></polygon><polygon fill="rgb(246,133,27)" stroke="rgb(246,133,27)" points="360.78846645355225,194.39740032702684 368.14420080184937,224.8475690037012 362.6300868988037,228.68909038603306"></polygon><polygon fill="rgb(246,133,27)" stroke="rgb(246,133,27)" points="405.3699131011963,228.68909038603306 399.85579919815063,224.8475690037012 407.21153354644775,194.39740032702684"></polygon><polygon fill="rgb(246,133,27)" stroke="rgb(246,133,27)" points="368.15866899490356,181.26094355341047 399.84133100509644,181.26094355341047 399.85579919815063,224.8475690037012"></polygon><polygon fill="rgb(246,133,27)" stroke="rgb(246,133,27)" points="399.85579919815063,224.8475690037012 368.14420080184937,224.8475690037012 368.15866899490356,181.26094355341047"></polygon><polygon fill="rgb(192,173,158)" stroke="rgb(192,173,158)" points="361.85961055755615,278.7103316783905 359.7358989715576,267.92306661605835 359.48792839050293,254.83348827064037"></polygon><polygon fill="rgb(192,173,158)" stroke="rgb(192,173,158)" points="408.51207160949707,254.83348827064037 408.2641010284424,267.92306661605835 406.14038944244385,278.7103316783905"></polygon><polygon fill="rgb(192,173,158)" stroke="rgb(192,173,158)" points="359.48792839050293,254.83348827064037 362.33305835723877,251.1786271482706 361.85961055755615,278.7103316783905"></polygon><polygon fill="rgb(192,173,158)" stroke="rgb(192,173,158)" points="361.85961055755615,278.7103316783905 362.33305835723877,251.1786271482706 405.66694164276123,251.1786271482706"></polygon><polygon fill="rgb(192,173,158)" stroke="rgb(192,173,158)" points="405.66694164276123,251.1786271482706 406.14038944244385,278.7103316783905 361.85961055755615,278.7103316783905"></polygon><polygon fill="rgb(192,173,158)" stroke="rgb(192,173,158)" points="406.14038944244385,278.7103316783905 405.66694164276123,251.1786271482706 408.51207160949707,254.83348827064037"></polygon><polygon fill="rgb(22,22,22)" stroke="rgb(22,22,22)" points="362.33305835723877,251.1786271482706 359.48792839050293,254.83348827064037 362.6300868988037,228.68909038603306"></polygon><polygon fill="rgb(22,22,22)" stroke="rgb(22,22,22)" points="405.3699131011963,228.68909038603306 408.51207160949707,254.83348827064037 405.66694164276123,251.1786271482706"></polygon><polygon fill="rgb(22,22,22)" stroke="rgb(22,22,22)" points="367.8431611061096,228.10173599421978 368.14420080184937,224.8475690037012 399.85579919815063,224.8475690037012"></polygon><polygon fill="rgb(22,22,22)" stroke="rgb(22,22,22)" points="399.85579919815063,224.8475690037012 400.1568388938904,228.10173599421978 367.8431611061096,228.10173599421978"></polygon><polygon fill="rgb(22,22,22)" stroke="rgb(22,22,22)" points="362.6300868988037,228.68909038603306 368.14420080184937,224.8475690037012 367.8431611061096,228.10173599421978"></polygon><polygon fill="rgb(22,22,22)" stroke="rgb(22,22,22)" points="400.1568388938904,228.10173599421978 399.85579919815063,224.8475690037012 405.3699131011963,228.68909038603306"></polygon><polygon fill="rgb(22,22,22)" stroke="rgb(22,22,22)" points="362.6300868988037,228.68909038603306 364.314893245697,232.08514358103275 362.33305835723877,251.1786271482706"></polygon><polygon fill="rgb(22,22,22)" stroke="rgb(22,22,22)" points="367.8431611061096,228.10173599421978 364.314893245697,232.08514358103275 362.6300868988037,228.68909038603306"></polygon><polygon fill="rgb(22,22,22)" stroke="rgb(22,22,22)" points="405.66694164276123,251.1786271482706 403.685106754303,232.08514358103275 405.3699131011963,228.68909038603306"></polygon><polygon fill="rgb(22,22,22)" stroke="rgb(22,22,22)" points="405.3699131011963,228.68909038603306 403.685106754303,232.08514358103275 400.1568388938904,228.10173599421978"></polygon><polygon fill="rgb(22,22,22)" stroke="rgb(22,22,22)" points="364.314893245697,232.08514358103275 403.685106754303,232.08514358103275 405.66694164276123,251.1786271482706"></polygon><polygon fill="rgb(22,22,22)" stroke="rgb(22,22,22)" points="405.66694164276123,251.1786271482706 362.33305835723877,251.1786271482706 364.314893245697,232.08514358103275"></polygon><polygon fill="rgb(22,22,22)" stroke="rgb(22,22,22)" points="400.1568388938904,228.10173599421978 403.685106754303,232.08514358103275 364.314893245697,232.08514358103275"></polygon><polygon fill="rgb(22,22,22)" stroke="rgb(22,22,22)" points="364.314893245697,232.08514358103275 367.8431611061096,228.10173599421978 400.1568388938904,228.10173599421978"></polygon></svg>