<svg width="16" height="12" viewBox="0 0 16 12" fill="none" xmlns="http://www.w3.org/2000/svg">
<path d="M15.8215 5.38423C14.988 4.02114 13.8674 2.9259 12.4598 2.09855C11.052 1.27116 9.56549 0.857422 8 0.857422C6.43451 0.857422 4.94793 1.27101 3.54018 2.09855C2.1324 2.9259 1.01183 4.02114 0.178505 5.38423C0.0595122 5.59254 0 5.79791 0 6.00034C0 6.20276 0.0595122 6.40813 0.178505 6.61638C1.01183 7.97953 2.1324 9.07486 3.54018 9.90203C4.94793 10.7295 6.43451 11.1429 8 11.1429C9.56552 11.1429 11.052 10.7309 12.4598 9.90653C13.8674 9.08215 14.9882 7.98538 15.8215 6.61638C15.9405 6.40813 16 6.20286 16 6.00034C16 5.79791 15.9405 5.59254 15.8215 5.38423ZM6.08469 2.94223C6.6174 2.40952 7.25577 2.14308 7.99991 2.14308C8.1189 2.14308 8.22016 2.18486 8.30353 2.26814C8.38678 2.35145 8.42863 2.45268 8.42863 2.57171C8.42863 2.69082 8.38678 2.79199 8.30372 2.87518C8.22047 2.95858 8.11915 3.00024 8.00012 3.00024C7.48825 3.00024 7.05062 3.18187 6.68757 3.54489C6.3244 3.90812 6.14292 4.34556 6.14292 4.85744C6.14292 4.97662 6.10114 5.07772 6.01786 5.1611C5.93446 5.24453 5.83332 5.28616 5.7143 5.28616C5.59518 5.28616 5.49401 5.24444 5.41064 5.1611C5.32724 5.07772 5.28558 4.97649 5.28558 4.85744C5.28558 4.11346 5.55202 3.47496 6.08469 2.94223ZM11.8795 8.91565C10.686 9.63868 9.39289 10.0004 8 10.0004C6.60714 10.0004 5.31401 9.6389 4.12057 8.91565C2.92714 8.19241 1.93457 7.22066 1.14293 6.00034C2.04768 4.59553 3.18161 3.54485 4.54469 2.84856C4.18162 3.46752 4.00002 4.13722 4.00002 4.85741C4.00002 5.95871 4.39146 6.90043 5.17412 7.68328C5.95679 8.46614 6.89885 8.85739 8 8.85739C9.10124 8.85739 10.043 8.46592 10.8259 7.68328C11.6087 6.90065 12 5.95871 12 4.85741C12 4.13722 11.8184 3.46742 11.4553 2.84856C12.8183 3.54485 13.9523 4.59562 14.857 6.00034C14.0655 7.22066 13.073 8.19241 11.8795 8.91565Z" fill="#4E174F"/>
</svg>
