<svg width="15" height="14" viewBox="0 0 15 14" fill="none" xmlns="http://www.w3.org/2000/svg">
<path d="M14 11.6667V12.4444C14 13.3 13.3 14 12.4444 14H1.55556C0.692222 14 0 13.3 0 12.4444V1.55556C0 0.7 0.692222 0 1.55556 0H12.4444C13.3 0 14 0.7 14 1.55556V2.33333H7C6.13667 2.33333 5.44445 3.03333 5.44445 3.88889V10.1111C5.44445 10.9667 6.13667 11.6667 7 11.6667H14ZM7 10.1111H14.7778V3.88889H7V10.1111ZM10.1111 8.16667C9.46556 8.16667 8.94445 7.64556 8.94445 7C8.94445 6.35444 9.46556 5.83333 10.1111 5.83333C10.7567 5.83333 11.2778 6.35444 11.2778 7C11.2778 7.64556 10.7567 8.16667 10.1111 8.16667Z" fill="#4E174F"/>
</svg>
