<svg width="112" height="23" viewBox="0 0 112 23" fill="none" xmlns="http://www.w3.org/2000/svg">
<path d="M13.4634 1.30896L21.7845 1.30896C27.3008 1.30896 30.3862 3.55287 30.3862 8.04068V8.13418C30.3862 11.1261 28.7967 12.9025 26.5528 13.7439L31.6016 22.5326H25.1504L20.9431 14.9594H19.5406L19.5406 22.5326H13.4634L13.4634 1.30896ZM21.4105 10.9391C23.4675 10.9391 24.4959 10.0976 24.4959 8.32117V8.22767C24.4959 6.54474 23.4675 5.79677 21.504 5.79677H19.5406V10.9391H21.4105Z" fill="#6141ED"/>
<path d="M33.5649 2.80488C33.5649 1.21545 34.7804 0 36.4633 0C38.1462 0 39.3617 1.21545 39.3617 2.80488C39.3617 4.39432 38.0528 5.51627 36.4633 5.51627C34.8739 5.51627 33.5649 4.30082 33.5649 2.80488ZM33.8454 7.01221L39.1747 7.01221V22.5326H33.8454L33.8454 7.01221Z" fill="#6141ED"/>
<path d="M42.4473 7.01216L47.7765 7.01216V9.34956C48.618 7.85362 50.2074 6.54468 52.6383 6.54468C54.6953 6.54468 56.0977 7.47964 56.8457 9.16257C58.1546 7.38614 60.0245 6.54468 61.988 6.54468C64.8863 6.54468 67.0367 8.4146 67.0367 12.3414V22.5325H61.7075V13.2764C61.7075 11.687 60.9595 10.939 59.744 10.939C58.3416 10.939 57.4066 11.874 57.4066 13.5569V22.5325H52.1709V13.2764C52.1709 11.687 51.4229 10.939 50.2074 10.939C48.805 10.939 47.87 11.874 47.87 13.5569V22.5325H42.5408V7.01216H42.4473Z" fill="#6141ED"/>
<path d="M74.8903 20.1016V22.5325H69.561V0.18689L74.8903 0.18689V9.34951C75.8253 7.85357 77.4147 6.63812 79.7521 6.63812C83.3985 6.63812 86.2968 9.34951 86.2968 14.6788V14.9593C86.2968 20.2886 83.3985 22.9999 79.6586 22.9999C77.4147 22.9064 75.6383 21.7845 74.8903 20.1016ZM80.8741 14.8658V14.5853C80.8741 11.8739 79.6586 10.565 77.7887 10.565C75.8253 10.565 74.7033 11.9674 74.7033 14.5853V14.8658C74.7033 17.4837 75.8253 18.8861 77.7887 18.8861C79.8456 18.7926 80.8741 17.3902 80.8741 14.8658Z" fill="#6141ED"/>
<path d="M88.4473 0.18689L93.7765 0.18689V22.5325H88.4473V0.18689Z" fill="#6141ED"/>
<path d="M95.2725 14.9593V14.6788C95.2725 9.72355 99.0123 6.54468 103.687 6.54468C107.894 6.54468 111.634 8.97558 111.634 14.5853V15.9878L100.695 15.9878C100.882 18.0447 102.004 19.2602 103.968 19.2602C105.744 19.2602 106.492 18.4187 106.679 17.3902H111.634C111.167 20.9431 108.455 22.9065 103.781 22.9065C98.8253 22.9065 95.2725 20.0081 95.2725 14.9593ZM106.399 12.9959C106.305 11.126 105.37 10.0975 103.687 10.0975C102.098 10.0975 100.976 11.126 100.695 12.9959L106.399 12.9959Z" fill="#6141ED"/>
<path d="M0 14.6789L0 1.30896L13.4634 1.30896L0 14.6789Z" fill="#6141ED"/>
<path opacity="0.4844" d="M0.0935059 7.94718L0.0935059 1.21545L6.82523 1.21545L0.0935059 7.94718Z" fill="#7E66EC"/>
<path d="M6.73173 1.21545L6.73173 7.94718L0.0935059 7.94718L6.73173 1.21545Z" fill="#7E66EC"/>
</svg>
